Coordinates
version=1
nRows=14
nColumns=24
inDegrees=yes

Units are S.I. units (second, meters, Newtons, ...)
Angles are in degrees.

endheader
time	pelvis_tilt	pelvis_list	pelvis_rotation	pelvis_tx	pelvis_ty	pelvis_tz	hip_flexion_r	hip_adduction_r	hip_rotation_r	knee_angle_r	ankle_angle_r	subtalar_angle_r	mtp_angle_r	hip_flexion_l	hip_adduction_l	hip_rotation_l	knee_angle_l	ankle_angle_l	subtalar_angle_l	mtp_angle_l	lumbar_extension	lumbar_bending	lumbar_rotation
      2.96000000	     -8.63916659	     -6.88911258	      8.21522074	     -1.66629256	     -0.04196956	      0.66414579	     33.87414828	      2.38889661	     -1.10211716	    -34.27934295	      0.58320928	     -2.44835758	     14.99750529	      8.91289040	     -6.37849264	      5.48715417	    -52.90960785	    -24.00072883	      0.91992686	      9.53169201	      8.92958113	     13.78398792	    -12.53695408
      2.96500000	     -8.51518635	     -7.13288263	      7.98899271	     -1.65924584	     -0.04132368	      0.66460317	     33.27149433	      2.80310834	     -1.20715896	    -34.15705649	      1.05848107	     -2.12261197	     15.21074236	      9.96111631	     -6.57680558	      5.10209413	    -54.72821381	    -23.56003298	      1.06392965	      9.78687831	      8.71693611	     14.20005456	    -12.10822460
      2.97000000	     -8.44764335	     -7.31928877	      7.78902246	     -1.65221722	     -0.04061985	      0.66502869	     32.70568752	      3.14919479	     -1.26231971	    -34.01364340	      1.51012946	     -1.84472656	     15.40150617	     11.06112432	     -6.69799395	      4.76918839	    -56.49665550	    -22.85451827	      1.35060680	     10.31277996	      8.56793063	     14.53090671	    -11.71695645
      2.97500000	     -8.45692884	     -7.52555369	      7.61358399	     -1.64514921	     -0.03986727	      0.66552985	     32.19873017	      3.51334196	     -1.32799110	    -33.82388913	      1.85953681	     -1.80994365	     15.40812282	     12.23775498	     -6.85081044	      4.49071651	    -58.15085108	    -22.29750248	      1.74716644	     12.04084691	      8.52801032	     14.84392816	    -11.33845355
      2.98000000	     -8.38741798	     -7.60365349	      7.40114987	     -1.63808873	     -0.03886308	      0.66615000	     31.57603978	      3.80941774	     -1.24133391	    -33.62305508	      2.25745075	     -1.74320985	     15.19430030	     13.24453815	     -6.89459438	      4.20761003	    -59.61076330	    -21.88930574	      2.33030914	     14.78324062	      8.36473127	     15.02253469	    -10.89647457
      2.98500000	     -8.32508703	     -7.59553208	      7.19811028	     -1.63106291	     -0.03772603	      0.66676157	     30.93553057	      4.01819345	     -1.10742772	    -33.40134395	      2.64805128	     -1.68113643	     14.94957604	     14.22594248	     -6.84486785	      3.93713828	    -60.94165858	    -21.55833480	      2.97756974	     17.83503212	      8.19977381	     15.09600698	    -10.46033959
      2.99000000	     -8.24831909	     -7.53114149	      6.99728582	     -1.62409993	     -0.03645423	      0.66738859	     30.26157984	      4.17549292	     -0.92584186	    -33.15608917	      2.98757172	     -1.61380835	     14.74546938	     15.16856448	     -6.74730498	      3.66006208	    -62.15251436	    -21.30694056	      3.66641781	     21.01036577	      8.00611293	     15.10218674	    -10.05424997
      2.99500000	     -8.18946145	     -7.43603928	      6.80711829	     -1.61711151	     -0.03510325	      0.66800681	     29.56897096	      4.29709219	     -0.72533444	    -32.85065708	      3.30338182	     -1.60369996	     14.62387284	     16.11318878	     -6.62182287	      3.38777813	    -63.26529161	    -21.06508291	      4.39489675	     23.93767993	      7.84456334	     15.06122289	     -9.63479576
      3.00000000	     -8.14926858	     -7.34439180	      6.61446558	     -1.61007207	     -0.03370761	      0.66867057	     28.86426304	      4.42561419	     -0.51332881	    -32.48787865	      3.59046135	     -1.66727196	     14.55652580	     17.06793444	     -6.52274762	      3.09577343	    -64.29533194	    -20.82186478	      5.12966669	     26.45933486	      7.72099143	     15.00878036	     -9.20499530
      3.00500000	     -8.11059492	     -7.22187945	      6.42583459	     -1.60317582	     -0.03227111	      0.66931664	     28.16167458	      4.51249942	     -0.29520136	    -32.11473032	      3.80729346	     -1.73842593	     14.49865314	     18.02388101	     -6.39272419	      2.80151870	    -65.25666221	    -20.56962246	      5.80531847	     28.52696962	      7.57780230	     14.91941309	     -8.77372549
      3.01000000	     -8.07441157	     -7.10658940	      6.24579469	     -1.59617569	     -0.03080203	      0.66994547	     27.41873827	      4.59716186	     -0.06190773	    -31.67882711	      4.08548655	     -1.74213997	     14.43446335	     18.96431145	     -6.29220006	      2.48049698	    -66.11846512	    -20.40544451	      6.31006152	     30.27266925	      7.47162702	     14.82717663	     -8.41141280
      3.01500000	     -8.05426528	     -7.00021688	      6.06713900	     -1.58923188	     -0.02935126	      0.67056530	     26.68220798	      4.68838491	      0.19997447	    -31.21278545	      4.31014068	     -1.80905878	     14.31216069	     19.92678723	     -6.20407974	      2.15992083	    -66.93853314	    -20.15419808	      6.71647525	     31.33366524	      7.38269144	     14.73892831	     -8.04921237
      3.02000000	     -8.03703072	     -6.88867808	      5.88142089	     -1.58230040	     -0.02792970	      0.67115524	     25.94433668	      4.75429908	      0.39236609	    -30.73258744	      4.52208847	     -1.86743635	     14.22226010	     20.87988969	     -6.12059104	      1.81488146	    -67.69748982	    -19.82838120	      6.97944603	     31.85252653	      7.29683245	     14.64586270	     -7.64834085
      3.02500000	     -8.02930683	     -6.83064023	      5.69266515	     -1.57536235	     -0.02654756	      0.67175314	     25.19923286	      4.87893988	      0.61540083	    -30.20807904	      4.69281072	     -1.97563488	     14.07935041	     21.84328471	     -6.11187630	      1.45905195	    -68.38253199	    -19.57838183	      6.99491674	     32.23974649	      7.23510759	     14.60568880	     -7.27877235
